<svg version="1" xmlns="http://www.w3.org/2000/svg" width="546.667" height="546.667" viewBox="0 0 410.000000 410.000000"><path d="M188 59.7c-1.4.9-16.4 15.5-33.5 32.4-17 17-47.7 47.4-68.2 67.6-20.5 20.3-37.6 37.9-38.2 39.4-.6 1.6-.5 3.2.1 4.5.6 1 9.1 9.8 18.9 19.4 9.8 9.6 44.6 44 77.4 76.5 32.8 32.4 61.3 60.5 63.3 62.3 3.6 3.3 5.5 3.7 6 1.1.1-.8-10.1-11.7-22.8-24.3-21.3-21.4-24.3-25.1-19.1-24.1.9.2 2.3.4 3.2.4.8.1 11.1 9.5 22.8 21 20.1 19.9 24.1 23 24.1 18.5 0-.7-8.3-9.6-18.5-19.6-10.2-10.1-18.5-18.6-18.5-18.9 0-1.2 2.6-1.7 5.6-1.1 2 .4 7.9 5.5 20.2 17.6 16.5 16.2 17.5 17 18.8 15.1 1.4-1.8.5-2.9-13.6-16.9-9.4-9.3-14.7-15.2-14-15.6 1.3-.8 7-.4 7.9.6.3.3 6.4 6.2 13.4 13.1 10.5 10.2 13.1 12.2 14.3 11.2.8-.6 1.4-1.5 1.4-1.9 0-.4-5-5.6-11.1-11.6-10.7-10.6-10.9-10.9-8.2-11.5 4.4-.9 6.6.4 15.3 9.1 7.5 7.5 10.7 9.3 11.7 6.4.2-.5-2.6-4.1-6.3-7.8-3.6-3.7-6.3-7-6-7.3.3-.4 2.3-.6 4.3-.5 2.9.1 4.6 1.1 8.3 4.7 4.7 4.6 8 5.8 8 2.8 0-.9-1.2-3-2.7-4.5l-2.7-2.8 6-.1c8.6-.1 9.2-.3 14.1-5.1 30.5-29.5 85.7-84.8 86.3-86.3.4-1.2.2-3-.6-4.5-.7-1.4-9-10.1-18.3-19.3-9.4-9.3-17.1-17.3-17.1-17.9 0-1.3 4.8-27.9 6.1-33.5.6-2.7.5-5.1-.1-6.9-1.2-3.1-49.1-50.9-53-52.9-2.7-1.4-2.6-1.4-18 1.5-25.9 4.8-24.4 4.8-28.5.5-1.9-2.1-3.5-4.1-3.5-4.4 0-.3 1.8-2.6 4-5s4-5.2 4-6.2c0-2.6-11-13.7-14.2-14.3-2-.3-3.6.5-7.3 3.9l-4.8 4.4-3.1-3.2c-4.2-4.3-8.6-7.7-10-7.7-.6 0-2.3.7-3.6 1.7zm29.3 37.7c14.1 14 25.7 25.8 25.7 26.1 0 .3-6.2 6.6-13.7 14L215.6 151l-6.4-6.2c-9.4-9.2-38.1-37.9-42.2-42.2l-3.4-3.6L177 85.5c7.4-7.4 13.7-13.5 14.1-13.5.3 0 12.1 11.5 26.2 25.4zm73.9 24.1c11.7 11.5 21.8 21.7 22.5 22.6 1 1.3.7 4.2-1.2 14.4-1.4 7.1-2.7 13-2.9 13.3-.6.5-67.6-65.8-67.6-66.9 0-1.1 1.4-1.4 17-4 3.5-.5 6.6-1.2 6.8-1.4 1.2-1.2 6.2 3.1 25.4 22zm-87.7 34C269.7 221.1 306 257.1 306 257.4c0 .4-42.1 42.1-42.8 42.3-.4.2-8.1-7-17.1-15.8-15.6-15.2-16.4-16.2-15.1-18.3 11.4-17.8 13.9-27.6 11.6-46.1-2.3-18.8-17.8-38.1-36.5-45.5-7.7-3-11.3-3.5-24.1-3.4-9.1.1-12.7.5-17.4 2.2-18.1 6.6-32 20.9-38.2 39.2-2.5 7.4-2.5 26.1-.1 33.9 6 19.1 22.8 35.3 41.6 40.2 2.8.7 5.1 1.7 5.1 2.1 0 1.2-8 9.7-10.2 10.9-1.6.9-7.8-4.9-44.1-41-23.2-23-45.5-45.1-49.4-49.1-4-3.9-7.3-7.5-7.3-7.9 0-.8 68.9-69.8 84.5-84.5l9-8.6 4.3 4.3c2.4 2.3 22 21.7 43.7 43.2zm63.9-8.6l14.8 14.8-13.7 13.7c-7.5 7.5-14 13.6-14.4 13.6-.3 0-7.3-6.7-15.6-15l-14.9-14.9 13.9-13.6c7.7-7.4 14.2-13.5 14.5-13.5.3 0 7.2 6.7 15.4 14.9zm56.5 56.3c5.8 5.8 12.4 12.5 14.6 14.7l4 4.1-13.9 13.6c-13.6 13.2-13.9 13.4-15.9 11.7-1.1-1-13-12.5-26.3-25.7l-24.2-23.8 14.1-13.8 14-13.8 11.5 11.1c6.3 6.2 16.2 16 22.1 21.9zm-125.4-19.7c12 4.1 22.7 13 27.8 23.1 8.3 16.4 7.8 32.3-1.6 47.7-3 4.9-3.6 5-7.3 1.3l-2.1-2.1 3.4-6.7c10.1-19.9 1.9-43.5-18.4-53-16.5-7.8-37.3-2.6-47.9 11.8-5 6.9-7.4 13.2-7.8 20.6-1.5 26.1 19.9 45.1 46.4 41.4l4.5-.7-5.2 5.1c-5.7 5.5-7.1 5.8-16.5 3.9-18.3-3.8-34.2-19.6-37.4-37.1-4.7-25.7 10.5-49.5 35.8-56.2 6.8-1.8 19.8-1.4 26.3.9zM237.8 292l10.5 10.5-3.4.5c-4.9.8-66.9.3-67.7-.4-.3-.4 7.3-8.6 17-18.3l17.7-17.6 7.7 7.4c4.2 4.1 12.4 12.1 18.2 17.9z"/></svg>